# xmcd CD database file generated by Grip 2.91
# 
# Track frame offsets:
#       150
#       23895
#       49332
#       72126
#       91022
#       112195
#       133131
#       154771
#       171709
#       183932
# 
# Disc length: 2974 seconds
# 
# Revision: 3
# Processed by: cddbd v1.4b41PL1 Copyright (c) Steve Scherf et al.
# Submitted via: Grip 2.91
# 
DISCID=8b0b9c0a
DTITLE=The Blues Men - Intrepido Blues
DYEAR=1900
DGENRE=
TTITLE0=I'm ready
TTITLE1=Summertime
TTITLE2=Mistery train
TTITLE3=Grass and blue
TTITLE4=Help me
TTITLE5=Clap the swing
TTITLE6=Got my mojo working
TTITLE7=Walter's boogie
TTITLE8=Western in my mind
TTITLE9=Oh baby you don't have to go
EXTD=
EXTT0=
EXTT1=
EXTT2=
EXTT3=
EXTT4=
EXTT5=
EXTT6=
EXTT7=
EXTT8=
EXTT9=
PLAYORDER=
